<?xml version="1.0" encoding="UTF-8" standalone="no"?>
<svg width="512" height="512" viewBox="0 0 512 512" fill="none" xmlns="http://www.w3.org/2000/svg">
  <!-- Background with gradient -->
  <rect width="512" height="512" rx="128" fill="url(#paint0_linear)"/>
  
  <!-- Brain icon -->
  <path d="M378.4 186.1c-7.2-25.3-22.9-45.9-43.7-58.3 1.6-4.5 2.5-9.3 2.5-14.4 0-24.2-19.7-43.9-43.9-43.9-7.5 0-14.5 1.9-20.7 5.2-16.5-11.1-36.3-17.7-57.6-17.7-55.1 0-100 43.7-102.1 98.2-21.3 12.6-37 33.5-44.2 58.5-8.6 2.6-15.9 8.1-20.7 15.5-7.2 11.1-8.2 24.9-2.7 37 2.7 6 6.7 11 11.6 14.9-5.2 2.8-9.8 6.8-13.3 11.9-5.6 8.4-7.6 18.5-5.5 28.5 2.1 10 8.1 18.5 17 24 6.7 4.2 14.3 6.3 22.1 6.3 0.7 0 1.5 0 2.2-0.1-1.1 2.1-2 4.3-2.7 6.6-4 12.9-1.8 26.8 5.9 37.9 7.7 11.1 20.1 18 33.6 18 7.8 0 15.4-2.2 22-6.5 18 14.9 40.2 24.5 64.3 26.6 3.2 11.2 12.6 19.8 24.2 21.7v0.2h4.3c0.7 0.1 1.4 0.1 2.1 0.1 1.3 0 2.5-0.1 3.8-0.3 15.2-2.6 26.3-15.9 26.3-31.8 0-2.5-0.3-5-0.8-7.3 1.6 0.1 3.2 0.2 4.8 0.2 19.9 0 38.2-8.5 51-22.8 27-6.6 51.4-21.5 69.6-42.7 0.6 0.4 1.2 0.9 1.8 1.3 7.8 5.2 16.8 7.9 26.1 7.9 12.9 0 25.2-5.3 34-14.6 8.7-9.3 13.4-21.6 13-34.4-0.4-13.8-6.3-26.5-16.1-35.1 0.1-2 0.1-4 0.1-6 0-19.9-4.2-38.8-11.7-55.9 5.5-4.5 9.6-10.6 11.5-17.9 3.8-14.7-2.6-30.1-15.9-38.1zm-85.1-96.6c13.2 0 23.9 10.7 23.9 23.9 0 5-1.6 9.7-4.2 13.6-3.1-1.5-6.2-2.8-9.5-4.1-1.8-11.3-6.2-21.9-12.8-31.1 1.2-1.4 2.5-2.6 3.9-3.7 3.1-2.3 6.6-3.6 10.3-3.9 1.9-0.1 3.9-0.1 5.9 0.1 1.8 0.5 3.5 1.1 5.1 1.9 2.3 0.8 4.4 1.9 6.3 3.2l-16.2 2.6c-5.9 1-9.9 6.5-9 12.4 0.9 5.3 5.5 9 10.7 9 0.6 0 1.2 0 1.8-0.1l29.5-4.7-16.6 26.6c-3.1 5.1-1.6 11.7 3.5 14.9 1.8 1.1 3.8 1.6 5.7 1.6 3.6 0 7.1-1.8 9.2-5.1l28.5-45.7c1-1.6 1.6-3.3 1.9-5.1 0.8-5-1.7-10.1-6.2-12.5-12.9-6.6-27.8-8.5-42.1-5.1-10.5 2.5-20.3 8.1-27.8 16.1-5.7 6.2-9.8 13.5-12.2 21.4-4-1.9-8.2-3.6-12.4-5 3.7-16.6 18.4-29.1 36.2-29.1zm-243.8 263.2c-4.8-3-8-8-9.1-13.8-1.1-5.8 0-11.7 3-16.5 3.3-5 8.7-8.3 14.6-9.1 1.4-0.2 2.9-0.3 4.3-0.3 4.3 0 8.6 1.3 12.2 3.9 2.2 1.5 3.9 3.4 5.1 5.5 0.4 0.6 0.8 1.3 1.1 2 0.3 0.7 0.6 1.4 0.9 2.1 0.3 0.9 0.6 1.7 0.7 2.6 0.1 0.5 0.2 1 0.3 1.5 0 0.2 0.1 0.5 0.1 0.8 0.1 0.9 0.1 1.8 0.1 2.7 0 0.8-0.1 1.7-0.2 2.5-0.1 1.2-0.3 2.3-0.7 3.5-0.1 0.3-0.1 0.5-0.2 0.8-0.7 2.4-1.8 4.6-3.1 6.6-0.6 0.9-1.3 1.7-2 2.5s-1.4 1.5-2.2 2.2c-3.5 3-7.9 4.7-12.4 4.7-4.4 0-8.7-1.5-12.5-4.4v-0.1c-0.1 0-0.1-0.1-0.2-0.1 0 0 0 0 0 0.1zm32.3 61.9c-9.3 0-17.8-4.8-22.7-12.8-5-7.6-6.2-16.8-3.4-25.3 1.8-5.5 5.1-10.1 9.5-13.5 0.1 0 0.1-0.1 0.2-0.1 3.5 2.2 7.3 3.8 11.3 4.6 12.5 2.5 25.1-2.4 32.9-12.8 1.9-2.6 3.5-5.4 4.6-8.4 0.5-1.3 0.9-2.7 1.3-4.1 0.1-0.5 0.2-1 0.3-1.6 2 3.1 4.3 6 6.7 8.8-5.7 14.2-8.8 29.7-8.8 45.9 0 2 0.1 4 0.2 6-10.8 9-26.9 12-40.1 7.9-0.5-0.1-1-0.3-1.5-0.5 3-1.2 5.7-3 8.1-5.2 3.3-3.1 5.8-7 7.3-11.4 1-2.9 1.6-5.9 1.7-9.1 4.9 2.5 10.2 3.8 15.6 3.8 4.4 0 8.9-0.9 13.1-2.6 5.9-2.4 11-6.5 14.7-11.9 0.3-0.5 0.7-1 1-1.5-5.3 7.5-12.1 13.8-20 18.6-7.2 4.5-15.3 6.9-23.6 7.1-2.4 0.1-4.7-0.1-7.1-0.4-0.4 1.5-1 3-1.8 4.4-3.2 6.2-9.7 10.1-16.7 10.1zm146.3 33.2c0 6.7-5.4 12.1-12.1 12.1-6.7 0-12.1-5.4-12.1-12.1v-15.6c0-3.2-1.7-6.2-4.5-7.9-2.8-1.7-6.3-1.7-9.1 0.1-10.8 6.8-23.3 10.7-36.5 10.7-16.6 0-32-5.9-44.2-15.9 0.2-3.9 0.8-7.8 1.6-11.5 7.4 4.3 15.8 6.9 24.7 7.4 0.1 0 0.2 0 0.4 0s0.2 0 0.4 0c2.1 0.1 4.2 0.1 6.4 0 10.2-0.3 20.1-3.1 28.9-8.1 17.8-10.1 30.3-28.4 33.4-49 0.4-2.6 0.7-5.3 0.8-8 2.1-0.4 4.2-0.6 6.3-0.6 9.2 0 17.9 3.6 24.5 10.2 2.8 2.8 5.1 6.2 6.7 9.8 1.6 3.6 2.6 7.5 2.8 11.5 0.2 4-0.2 8-1.3 11.9-1.2 4.3-3.2 8.2-5.8 11.7 0 0-0.1 0.1-0.1 0.1-0.3 0.4-0.6 0.8-0.9 1.2-1.7 2.1-3.6 3.9-5.7 5.5-3.3 2.5-7 4.4-11.1 5.6-3.5 1-7.1 1.6-10.8 1.6-3.7 0-7.3-0.6-10.8-1.6-0.7-0.2-1.3-0.4-2-0.7-3.3-1.2-6.7 0.5-7.9 3.8-0.8 2.1-0.3 4.4 1.1 6.1 1.4 1.6 3.6 2.3 5.7 1.9 1.1-0.3 2.1-0.5 3.2-0.7 3.6-0.7 7.2-1 10.8-1 2.9 0 5.7 0.2 8.5 0.7l6.6 8.6v11.1zm77.6-76.2c-0.7 3.6-2.5 6.8-5.1 9.3-1.7 1.6-3.7 2.9-5.8 3.8v-0.1c-0.4 0.1-0.8 0.3-1.2 0.4s-0.8 0.2-1.2 0.3c-1.8 0.4-3.5 0.6-5.3 0.6-5.4 0-10.7-1.7-15.1-4.9-1.1-0.8-2.2-1.7-3.1-2.6-1.5-1.5-2.8-3.2-3.9-5.1-1.6-2.8-2.7-5.8-3.1-9-0.3-2.1-0.3-4.3 0-6.4 0.2-2.1 0.8-4.1 1.5-6.1 0.5-1.3 1.1-2.5 1.8-3.7 1-1.6 2.1-3.1 3.5-4.5 4.2-4.4 9.9-7.1 16-7.6 6.2-0.5 12.3 1.1 17.2 4.7 2.1 1.5 4 3.4 5.5 5.5 1 1.3 1.8 2.8 2.5 4.3 0.3 0.7 0.6 1.4 0.8 2.1 0.9 2.6 1.4 5.3 1.4 8.1 0 2.8-0.5 5.5-1.4 8.1-0.2 0.7-0.5 1.4-0.8 2.1-0.1 0.2-0.2 0.4-0.3 0.6-1.2 2.3-2.9 4.4-4.9 6.2-0.1-0.9-0.2-1.9-0.2-2.8 0-12.4 9.4-22.5 21-23.9 3.5-0.4 7.1-0.2 10.3 0.9-3.9 7.3-7.2 15-9.9 22.9-0.5-0.1-1-0.2-1.5-0.4-8-2.4-13.6-9.8-13.6-18.5 0-3.9 1.2-7.7 3.3-10.9-3.5 3.1-5.9 7.5-6.4 12.4-0.1 0.7-0.1 1.4-0.1 2.2 0 0.7 0 1.5 0.1 2.2 0.1 1.1 0.4 2.3 0.7 3.3 0.2 0.7 0.4 1.3 0.7 2 0.9 2.3 2.3 4.4 3.9 6.2-0.1 0.1-0.2 0.1-0.3 0.2zm126.7-27.2c-7.4 7.9-20 8.9-28.8 2.6-0.3-0.2-0.5-0.4-0.8-0.6 0.7-3.8 1.3-7.6 1.7-11.5 5.3 4.8 13.2 5.9 19.7 2.3 0.3-0.2 0.7-0.4 1-0.6-7.1-0.8-12.7-6.1-13.8-13.1-0.2-1.1-0.2-2.2-0.2-3.4 0-2.9 0.6-5.6 1.9-8.1 0.9-1.9 2.2-3.5 3.7-4.9 0.9-0.8 1.9-1.5 2.9-2.1-0.9 2.3-1.4 4.8-1.4 7.4 0 8.5 5.5 16 13.4 18.5 0.3 0.1 0.6 0.2 0.9 0.3-2.6 1.9-5.7 3.1-9 3.3-0.4 0-0.9 0.1-1.3 0.1-0.5 0-0.9 0-1.4-0.1-0.5 0-1-0.1-1.4-0.2-0.5-0.1-1-0.2-1.4-0.3 0 0-0.1 0-0.1 0 1 5.9 5.4 10.8 11.4 12.4-8.5 7.9-21.9 7.9-30.5 0.1-0.2-0.2-0.4-0.4-0.5-0.6-0.1 0-0.1 0-0.2 0-0.1 0-0.2 0-0.2 0-0.6-0.1-1.3-0.1-1.9-0.2v-0.1c-0.6-0.1-1.3-0.2-1.9-0.3 0.4-2.5 0.8-5.1 1-7.7 1.8-17.7-0.5-35.7-6.9-52.2-0.7-1.8-1.5-3.6-2.3-5.4 6.1 0.1 12.2 2.9 16.5 8.1 2.2 2.7 3.9 6 4.7 9.4 0.1 0.3 0.1 0.6 0.2 1s0.1 0.7 0.2 1c0.1 0.7 0.1 1.4 0.1 2.1 0 1.1-0.1 2.2-0.3 3.3-0.3 1.9-0.9 3.7-1.7 5.5-1.3 2.8-3.1 5.2-5.4 7.2-0.2 0.2-0.4 0.3-0.6 0.5s-0.4 0.3-0.6 0.5c-2.8 1.9-6.1 3.1-9.5 3.4-0.6 0.1-1.3 0.1-1.9 0.1-0.6 0-1.3 0-1.9-0.1-0.5-0.1-1.1-0.1-1.6-0.2-0.5-0.1-1-0.2-1.6-0.3 0.7 4 2.8 7.7 6.1 10.1 1.4 1 3 1.8 4.6 2.3 1.1 0.4 2.3 0.6 3.5 0.8 1.1 0.1 2.3 0.2 3.4 0.1 3.4-0.2 6.7-1.3 9.6-3.1 0.7-0.4 1.3-0.9 2-1.4 0.3 0.3 0.7 0.7 1 1 2.4 2.2 5.2 3.9 8.3 5 5.1 1.9 10.5 1.9 15.6 0.1 5.1-1.9 9.2-5.5 11.9-10.2 0.5-0.8 0.9-1.7 1.3-2.6 0.8-1.9 1.4-3.9 1.7-6 0.7-4.2 0.2-8.5-1.2-12.4-1.5-3.9-4-7.3-7.2-10z" fill="white" stroke="#ffffff" stroke-width="5"/>
  
  <!-- Decorative elements -->
  <circle cx="128" cy="192" r="24" fill="#ffffff" fill-opacity="0.3"/>
  <circle cx="384" cy="320" r="32" fill="#ffffff" fill-opacity="0.2"/>
  <circle cx="240" cy="400" r="16" fill="#ffffff" fill-opacity="0.3"/>
  
  <!-- Linear gradient definition -->
  <defs>
    <linearGradient id="paint0_linear" x1="0" y1="0" x2="512" y2="512" gradientUnits="userSpaceOnUse">
      <stop offset="0" stop-color="#6e8efb"/>
      <stop offset="1" stop-color="#a777e3"/>
    </linearGradient>
  </defs>
</svg>