<?xml version="1.0" encoding="UTF-8"?>
<svg width="512" height="512" viewBox="0 0 512 512" fill="none" xmlns="http://www.w3.org/2000/svg">
  <!-- Background -->
  <rect width="512" height="512" rx="128" fill="url(#paint0_linear)"/>
  
  <!-- Brain icon -->
  <path d="M371.5 225.3c-3.8-3.9-8.4-7-13.5-9V204c0-20.6-11.8-38.5-29-47.1V140c0-16.6-13.4-30-30-30c-6.8 0-13 2.3-18 6.1C275.2 105.4 263.2 99 250 99s-25.2 6.4-31 17.1C214 112.3 207.8 110 201 110c-16.6 0-30 13.4-30 30v16.9c-17.2 8.6-29 26.5-29 47.1v12.3c-5.1 2-9.7 5.1-13.5 9c-8.3 8.5-13.5 20.1-13.5 33c0 10.5 3.5 20.2 9.3 28c-5.9 7.8-9.3 17.5-9.3 28c0 12.8 5.1 24.5 13.5 33c3.5 3.6 7.7 6.7 12.5 8.8v5.2c0 25.6 20.8 46.4 46.4 46.4H200c3.6 21.1 22 37.2 44 37.2c24.7 0 44.7-20 44.7-44.7v-5.3h13.2c25.6 0 46.4-20.8 46.4-46.4v-5.2c4.8-2.2 9-5.2 12.5-8.8c8.3-8.5 13.5-20.1 13.5-33c0-10.5-3.5-20.2-9.3-28c5.9-7.8 9.3-17.5 9.3-28C385 245.4 379.9 233.8 371.5 225.3zM280 400.3c0 19.8-16.1 35.9-35.9 35.9c-18.2 0-33.4-13.5-35.7-31.1h0.1c0-0.1 0-0.2 0-0.3c-0.1-1.3-0.1-2.7-0.1-4c0-0.7 0-1.3 0-2h38.3V327h-66v-18h66v-18h-66v-18h66v-9c0-4.9 4.1-9 9-9s9 4.1 9 9v88.5h15.5V400.3zM128 142.7h18v18h-18V142.7zM185 399.9h-38.7c-20.7 0-37.5-16.8-37.5-37.5v-9.2h24.4c2.5 0 4.5-2 4.5-4.5s-2-4.5-4.5-4.5h-24.4V330h24.4c2.5 0 4.5-2 4.5-4.5s-2-4.5-4.5-4.5h-24.4V309h24.4c2.5 0 4.5-2 4.5-4.5s-2-4.5-4.5-4.5h-24.4v-9h24.4c2.5 0 4.5-2 4.5-4.5s-2-4.5-4.5-4.5h-24.4v-9h24.4c2.5 0 4.5-2 4.5-4.5s-2-4.5-4.5-4.5h-24.4v-9h24.4c2.5 0 4.5-2 4.5-4.5s-2-4.5-4.5-4.5h-24.4v-9h24.4c2.5 0 4.5-2 4.5-4.5s-2-4.5-4.5-4.5h-24.4V228h24.4c2.5 0 4.5-2 4.5-4.5s-2-4.5-4.5-4.5h-24.4v-9h24.4c2.5 0 4.5-2 4.5-4.5s-2-4.5-4.5-4.5h-24.4v-9h24.4c2.5 0 4.5-2 4.5-4.5s-2-4.5-4.5-4.5h-24.4v-12.3c0-18.6 15.1-33.8 33.8-33.8s33.8 15.1 33.8 33.8v50.4h-47.6c-2.5 0-4.5 2-4.5 4.5s2 4.5 4.5 4.5h47.6v18h-47.6c-2.5 0-4.5 2-4.5 4.5s2 4.5 4.5 4.5h47.6v18h-47.6c-2.5 0-4.5 2-4.5 4.5s2 4.5 4.5 4.5h47.6v18h-47.6c-2.5 0-4.5 2-4.5 4.5s2 4.5 4.5 4.5h47.6v18h-47.6c-2.5 0-4.5 2-4.5 4.5s2 4.5 4.5 4.5h47.6V399.9zM348.4 362.4c0 20.7-16.8 37.5-37.5 37.5h-21.7v-39h-15.5V255.1c0-9.9-8.1-18-18-18c-9.9 0-18 8.1-18 18v9H194v18h43.7v18H194v18h43.7v18H194v18h43.7v0.7c0 0.4 0 0.9 0 1.3c0 1.1 0 2.2 0.1 3.3h-43.1c-0.1 0-0.2 0-0.3 0h-0.2c0.4-2.1 0.6-4.3 0.6-6.5c0-2.5-0.3-4.9-0.7-7.3V204c0-13.7-11.1-24.8-24.8-24.8S145.6 190.3 145.6 204v50.4H114c-12.5 0-23.2 7.6-27.8 18.4c-0.3-1.3-0.5-2.7-0.5-4.1c0-10.1 8.2-18.3 18.3-18.3h4.9c2.5 0 4.5-2 4.5-4.5s-2-4.5-4.5-4.5h-4.9c-9.9 0-18.8 4.3-24.9 11.2c-1.9-3.8-3-8-3-12.4c0-15.1 12.3-27.4 27.4-27.4c2.5 0 4.5-2 4.5-4.5s-2-4.5-4.5-4.5c-20.1 0-36.4 16.3-36.4 36.4c0 7.6 2.3 14.6 6.3 20.5c-4 5.8-6.3 12.9-6.3 20.5c0 10.1 4.1 19.3 10.9 25.9c-6.7 6.6-10.9 15.7-10.9 25.9c0 20.1 16.3 36.4 36.4 36.4h0.8c3.4 9.2 9.7 17.1 17.6 22.6c-1.2 3.2-1.8 6.6-1.8 10.1c0 16.2 13.2 29.4 29.4 29.4c11.1 0 20.7-6.1 25.7-15.1c5.1 9 14.7 15.1 25.7 15.1c10.2 0 19.2-5.2 24.5-13.1c5.3 7.9 14.3 13.1 24.5 13.1c16.2 0 29.4-13.2 29.4-29.4c0-1.8-0.2-3.6-0.5-5.4c14.5-6 24.7-20.3 24.7-36.9v-9.2c8.1-4.1 13.6-12.5 13.6-22.2c0-8.2-4-15.5-10.1-20c6.1-4.5 10.1-11.8 10.1-20c0-9.7-5.5-18.1-13.6-22.2v-9c0-10.3-3.1-19.9-8.4-27.9h15.6c15.1 0 27.4 12.3 27.4 27.4c0 4.4-1.1 8.6-2.9 12.4c-6.1-6.9-15-11.2-24.9-11.2h-4.9c-2.5 0-4.5 2-4.5 4.5s2 4.5 4.5 4.5h4.9c10.1 0 18.3 8.2 18.3 18.3c0 1.4-0.2 2.8-0.5 4.1c-4.6-10.8-15.3-18.4-27.8-18.4h-31.7V204c0-13.7-11.1-24.8-24.8-24.8h-0.1c2.4-2.5 5.8-4.1 9.5-4.1c7.3 0 13.2 5.9 13.2 13.2v47.1c0 2.5 2 4.5 4.5 4.5s4.5-2 4.5-4.5v-47.1c0-12.2-9.9-22.2-22.2-22.2c-12.2 0-22.2 9.9-22.2 22.2v14.9h-6.3V140c0-11.6 9.4-21.1 21.1-21.1c8.5 0 16 5.1 19.3 13c0.8 1.9 2.6 3 4.5 3c0.6 0 1.2-0.1 1.9-0.4c2.3-1 3.4-3.7 2.3-6c-2.6-6.3-7.2-11.7-13.2-15.2c0-0.5 0.1-0.9 0.1-1.4c0-11.6 9.4-21.1 21.1-21.1c11.6 0 21.1 9.4 21.1 21.1V190c-4.2 0.6-8.2 1.8-12 3.6c-2.3 1.1-3.3 3.8-2.2 6.1c0.8 1.6 2.4 2.6 4.1 2.6c0.6 0 1.3-0.1 2-0.4c5.3-2.5 11.2-3.9 17.1-3.9c22.1 0 40.1 18 40.1 40.1v9c-8.1 4.1-13.6 12.5-13.6 22.2c0 8.2 4 15.5 10.1 20c-6.1 4.5-10.1 11.8-10.1 20c0 9.7 5.5 18.1 13.6 22.2V362.4z" fill="white"/>
  
  <circle cx="323" cy="142.7" r="9" fill="white"/>
  
  <!-- Gradient definitions -->
  <defs>
    <linearGradient id="paint0_linear" x1="0" y1="0" x2="512" y2="512" gradientUnits="userSpaceOnUse">
      <stop offset="0" stop-color="#6e8efb"/>
      <stop offset="1" stop-color="#a777e3"/>
    </linearGradient>
  </defs>
</svg>