<?xml version="1.0" encoding="UTF-8" standalone="no"?>
<svg width="96" height="96" viewBox="0 0 96 96" fill="none" xmlns="http://www.w3.org/2000/svg">
  <circle cx="48" cy="48" r="48" fill="url(#paint0_linear)"/>
  <path d="M72 42.5C72 56.031 61.2548 67 48 67C44.0559 67 40.321 66.1698 36.9715 64.6935C34.5201 63.6633 32.2515 63.2772 30.1544 63.5407C28.0572 63.8043 26.1315 64.7175 24.3769 66.2803C23.4922 67.0658 22.1557 66.1477 22.6316 65.0909C24.0134 61.9651 24.0825 58.4647 22.8389 54.5898C21.0309 49.0879 20 43.9008 20 42.5C20 28.969 30.7452 18 44 18C57.2548 18 72 28.969 72 42.5Z" fill="white"/>
  <path d="M32 40.5C32 41.3284 31.3284 42 30.5 42C29.6716 42 29 41.3284 29 40.5C29 39.6716 29.6716 39 30.5 39C31.3284 39 32 39.6716 32 40.5Z" fill="url(#paint1_linear)"/>
  <path d="M47 40.5C47 41.3284 46.3284 42 45.5 42C44.6716 42 44 41.3284 44 40.5C44 39.6716 44.6716 39 45.5 39C46.3284 39 47 39.6716 47 40.5Z" fill="url(#paint2_linear)"/>
  <path d="M62 40.5C62 41.3284 61.3284 42 60.5 42C59.6716 42 59 41.3284 59 40.5C59 39.6716 59.6716 39 60.5 39C61.3284 39 62 39.6716 62 40.5Z" fill="url(#paint3_linear)"/>
  <defs>
    <linearGradient id="paint0_linear" x1="0" y1="0" x2="96" y2="96" gradientUnits="userSpaceOnUse">
      <stop offset="0" stop-color="#6e8efb"/>
      <stop offset="1" stop-color="#a777e3"/>
    </linearGradient>
    <linearGradient id="paint1_linear" x1="29" y1="39" x2="32" y2="42" gradientUnits="userSpaceOnUse">
      <stop offset="0" stop-color="#6e8efb"/>
      <stop offset="1" stop-color="#a777e3"/>
    </linearGradient>
    <linearGradient id="paint2_linear" x1="44" y1="39" x2="47" y2="42" gradientUnits="userSpaceOnUse">
      <stop offset="0" stop-color="#6e8efb"/>
      <stop offset="1" stop-color="#a777e3"/>
    </linearGradient>
    <linearGradient id="paint3_linear" x1="59" y1="39" x2="62" y2="42" gradientUnits="userSpaceOnUse">
      <stop offset="0" stop-color="#6e8efb"/>
      <stop offset="1" stop-color="#a777e3"/>
    </linearGradient>
  </defs>
</svg>